<?xml version="1.0" encoding="UTF-8" standalone="no"?>
<svg xmlns="http://www.w3.org/2000/svg" style="display:none">
  <symbol id="icon-rzemioslo" viewBox="0 0 93 93">
    <circle cx="46.5" cy="46.5" r="46.5" fill="#FAF7F4"/>
    <g fill="none" stroke="#000000" stroke-width="2.5" stroke-linecap="round" stroke-linejoin="round">
      <path d="M24 46 H68"/>
      <path d="M32 43 V46"/>
      <path d="M36 42 V46"/>
      <path d="M40 43 V46"/>
      <path d="M44 42 V46"/>
      <path d="M48 43 V46"/>
      <path d="M52 42 V46"/>
      <path d="M56 43 V46"/>
      <path d="M60 42 V46"/>
      <path d="M24 46 V36 H34"/>
      <rect x="42" y="38" width="14" height="16" rx="2"/>
      <path d="M56 54 H46 V46"/>
      <circle cx="49" cy="46" r="1.8"/>
    </g>
  </symbol>

  <symbol id="icon-transparentnosc" viewBox="0 0 93 93">
    <circle cx="46.5" cy="46.5" r="46.5" fill="#FAF7F4"/>
    <g fill="none" stroke="#000000" stroke-width="2.5" stroke-linecap="round" stroke-linejoin="round">
      <rect x="26" y="24" width="34" height="42" rx="4"/>
      <path d="M60 36 L50 36 L50 26"/>
      <path d="M32 44 H54"/>
      <path d="M32 50 H54"/>
      <path d="M32 56 H46"/>
      <path d="M57 62 L61 66 L69 57"/>
      <circle cx="63" cy="61" r="11"/>
    </g>
  </symbol>

  <symbol id="icon-terminowosc" viewBox="0 0 93 93">
    <circle cx="46.5" cy="46.5" r="46.5" fill="#FAF7F4"/>
    <g fill="none" stroke="#000000" stroke-width="2.5" stroke-linecap="round" stroke-linejoin="round">
      <rect x="22" y="28" width="40" height="32" rx="4"/>
      <path d="M22 36 H62"/>
      <path d="M30 24 V32"/>
      <path d="M54 24 V32"/>
      <circle cx="67" cy="60" r="11"/>
      <path d="M62 60 L66 64 L74 56"/>
    </g>
  </symbol>
</svg>
