<svg width="16" height="17" viewBox="0 0 16 17" fill="none" xmlns="http://www.w3.org/2000/svg">
<path d="M8 0.333252C3.592 0.333252 0 3.92525 0 8.33325C0 12.7413 3.592 16.3333 8 16.3333C12.408 16.3333 16 12.7413 16 8.33325C16 3.92525 12.408 0.333252 8 0.333252ZM11.824 6.49325L7.288 11.0293C7.176 11.1413 7.024 11.2053 6.864 11.2053C6.704 11.2053 6.552 11.1413 6.44 11.0293L4.176 8.76525C3.944 8.53325 3.944 8.14925 4.176 7.91725C4.408 7.68525 4.792 7.68525 5.024 7.91725L6.864 9.75725L10.976 5.64525C11.208 5.41325 11.592 5.41325 11.824 5.64525C12.056 5.87725 12.056 6.25325 11.824 6.49325Z" fill="#DC9B59"/>
</svg>
