<svg width="102" height="101" viewBox="0 0 102 101" fill="none" xmlns="http://www.w3.org/2000/svg">
<g filter="url(#filter0_d_5312_1828)">
<rect x="4.5" width="93" height="93" rx="46.5" fill="#FAF7F4" shape-rendering="crispEdges"/>
<path d="M35.6563 39.611C35.6316 39.7491 35.6375 39.891 35.6736 40.0266C35.7097 40.1623 35.775 40.2883 35.8651 40.396C35.9551 40.5036 36.0677 40.5902 36.1949 40.6496C36.322 40.709 36.4606 40.7399 36.601 40.7399H50.041V52.2599H41.401C41.1464 52.2599 40.9022 52.3611 40.7221 52.5411C40.5421 52.7211 40.441 52.9653 40.441 53.2199C40.441 53.4745 40.5421 53.7187 40.7221 53.8987C40.9022 54.0788 41.1464 54.1799 41.401 54.1799H50.041V67.6199C50.041 67.8745 50.1421 68.1187 50.3221 68.2987C50.5022 68.4788 50.7464 68.5799 51.001 68.5799C51.2556 68.5799 51.4998 68.4788 51.6798 68.2987C51.8598 68.1187 51.961 67.8745 51.961 67.6199V54.1799H60.601C60.8556 54.1799 61.0998 54.0788 61.2798 53.8987C61.4598 53.7187 61.561 53.4745 61.561 53.2199C61.561 52.9653 61.4598 52.7211 61.2798 52.5411C61.0998 52.3611 60.8556 52.2599 60.601 52.2599H51.961V40.7399H65.401C65.5413 40.7399 65.6799 40.709 65.8071 40.6496C65.9342 40.5902 66.0468 40.5036 66.1369 40.396C66.2269 40.2883 66.2923 40.1623 66.3284 40.0266C66.3644 39.891 66.3703 39.7491 66.3456 39.611C66.3245 39.491 64.1078 27.9095 51.9552 27.3278C51.9552 27.3182 51.961 27.3095 51.961 27.2999V25.3799C51.961 25.1253 51.8598 24.8811 51.6798 24.7011C51.4998 24.5211 51.2556 24.4199 51.001 24.4199C50.7464 24.4199 50.5022 24.5211 50.3221 24.7011C50.1421 24.8811 50.041 25.1253 50.041 25.3799V27.2999C50.041 27.3095 50.0467 27.3182 50.0467 27.3287C37.8941 27.9095 35.6774 39.491 35.6563 39.611ZM51.001 29.2199C53.9567 29.0996 56.8661 29.9827 59.2563 31.7257C61.6464 33.4686 63.3766 35.9689 64.1655 38.8199H37.8365C38.6254 35.9689 40.3555 33.4686 42.7457 31.7257C45.1358 29.9827 48.0453 29.0996 51.001 29.2199ZM70.1674 48.6724L67.3498 59.0039L69.2179 67.4116C69.2479 67.5356 69.2528 67.6643 69.2325 67.7902C69.2121 67.9161 69.1669 68.0367 69.0994 68.145C69.032 68.2532 68.9436 68.3469 68.8395 68.4206C68.7354 68.4943 68.6176 68.5465 68.4931 68.5742C68.3686 68.6019 68.2399 68.6045 68.1143 68.5818C67.9888 68.5592 67.8691 68.5117 67.7621 68.4423C67.6551 68.3728 67.563 68.2828 67.4912 68.1773C67.4195 68.0719 67.3694 67.9532 67.344 67.8282L65.5911 59.9399H57.5309L55.7779 67.8282C55.7525 67.9532 55.7025 68.0719 55.6307 68.1773C55.5589 68.2828 55.4668 68.3728 55.3599 68.4423C55.2529 68.5117 55.1331 68.5592 55.0076 68.5818C54.8821 68.6045 54.7533 68.6019 54.6288 68.5742C54.5043 68.5465 54.3866 68.4943 54.2824 68.4206C54.1784 68.3469 54.09 68.2532 54.0225 68.145C53.955 68.0367 53.9098 67.9161 53.8894 67.7902C53.8691 67.6643 53.8741 67.5356 53.904 67.4116L55.824 58.7716C55.8714 58.5584 55.9901 58.3678 56.1604 58.2311C56.3307 58.0945 56.5426 58.02 56.761 58.0199H65.6275L68.3155 48.1674C68.3462 48.0432 68.4015 47.9263 68.478 47.8237C68.5546 47.7211 68.6509 47.6349 68.7612 47.5701C68.8716 47.5052 68.9938 47.4631 69.1207 47.4462C69.2476 47.4293 69.3765 47.4379 69.5 47.4716C69.6235 47.5053 69.739 47.5633 69.8398 47.6423C69.9405 47.7213 70.0244 47.8196 70.0866 47.9315C70.1488 48.0433 70.188 48.1665 70.2018 48.2938C70.2157 48.421 70.204 48.5498 70.1674 48.6724ZM33.6874 48.1674L36.3744 58.0199H45.241C45.4594 58.02 45.6712 58.0945 45.8415 58.2311C46.0119 58.3678 46.1305 58.5584 46.1779 58.7716L48.0979 67.4116C48.1279 67.5356 48.1328 67.6643 48.1125 67.7902C48.0921 67.9161 48.0469 68.0367 47.9794 68.145C47.912 68.2532 47.8236 68.3469 47.7195 68.4206C47.6154 68.4943 47.4976 68.5465 47.3731 68.5742C47.2486 68.6019 47.1199 68.6045 46.9943 68.5818C46.8688 68.5592 46.7491 68.5117 46.6421 68.4423C46.5351 68.3728 46.443 68.2828 46.3712 68.1773C46.2995 68.0719 46.2494 67.9532 46.224 67.8282L44.4711 59.9399H36.4109L34.6579 67.8282C34.5988 68.0728 34.4461 68.2843 34.2327 68.4174C34.0192 68.5505 33.762 68.5945 33.5164 68.5399C33.2709 68.4853 33.0565 68.3365 32.9196 68.1255C32.7826 67.9145 32.7339 67.6581 32.784 67.4116L34.6522 59.0039L31.8346 48.6724C31.8014 48.5507 31.7925 48.4238 31.8085 48.2987C31.8244 48.1736 31.8648 48.0529 31.9274 47.9434C32.0538 47.7223 32.2628 47.5605 32.5085 47.4935C32.7542 47.4266 33.0164 47.4599 33.2375 47.5863C33.4586 47.7127 33.6204 47.9217 33.6874 48.1674Z" fill="black"/>
</g>
<defs>
<filter id="filter0_d_5312_1828" x="0.5" y="0" width="101" height="101" filterUnits="userSpaceOnUse" color-interpolation-filters="sRGB">
<feFlood flood-opacity="0" result="BackgroundImageFix"/>
<feColorMatrix in="SourceAlpha" type="matrix" values="0 0 0 0 0 0 0 0 0 0 0 0 0 0 0 0 0 0 127 0" result="hardAlpha"/>
<feOffset dy="4"/>
<feGaussianBlur stdDeviation="2"/>
<feComposite in2="hardAlpha" operator="out"/>
<feColorMatrix type="matrix" values="0 0 0 0 0.793269 0 0 0 0 0.785642 0 0 0 0 0.785642 0 0 0 0.25 0"/>
<feBlend mode="normal" in2="BackgroundImageFix" result="effect1_dropShadow_5312_1828"/>
<feBlend mode="normal" in="SourceGraphic" in2="effect1_dropShadow_5312_1828" result="shape"/>
</filter>
</defs>
</svg>
