<svg width="25" height="10" viewBox="0 0 25 10" fill="none" xmlns="http://www.w3.org/2000/svg">
<path d="M24.695 4.41074L19.7179 0.429072C19.42 0.190815 18.972 0.119553 18.5828 0.248507C18.1936 0.37746 17.9398 0.681242 17.9397 1.01824V3.54157C17.9397 3.65663 17.8231 3.7499 17.6793 3.7499H1.56251C0.699561 3.7499 0 4.30955 0 4.99991C0 5.69026 0.699561 6.24991 1.56251 6.24991H17.6793C17.8231 6.24991 17.9397 6.34318 17.9397 6.45824V8.98157C17.9398 9.31857 18.1936 9.62235 18.5828 9.7513C18.972 9.88026 19.42 9.809 19.7179 9.57074L24.695 5.58907C25.1017 5.26366 25.1017 4.73616 24.695 4.41074Z" fill="white"/>
</svg>
