<svg width="11" height="10" viewBox="0 0 11 10" fill="none" xmlns="http://www.w3.org/2000/svg">
<path d="M6.08721 0.35074L7.27403 2.65489C7.36325 2.82842 7.53559 2.94843 7.73543 2.97608L10.4751 3.35723C10.9774 3.42723 11.1779 4.02019 10.8143 4.3602L8.83362 6.21024C8.68879 6.34553 8.62275 6.54023 8.65697 6.73141L9.10979 9.26322C9.20146 9.77676 8.64107 10.1685 8.16073 9.92676L5.78471 8.7297C5.60626 8.6397 5.39357 8.6397 5.21573 8.7297L2.8415 9.92557C2.36054 10.1679 1.79829 9.77557 1.89057 9.26086L2.34347 6.73141C2.37769 6.54023 2.31165 6.34553 2.16682 6.21024L0.186177 4.3602C-0.178054 4.02019 0.0223534 3.42723 0.52531 3.35723L3.26501 2.97608C3.46423 2.94843 3.63657 2.82842 3.72641 2.65489L4.91323 0.35074C5.15218 -0.116913 5.84643 -0.116913 6.08721 0.35074Z" fill="#FCBC0B"/>
</svg>
