<svg width="21" height="10" viewBox="0 0 21 10" fill="none" xmlns="http://www.w3.org/2000/svg">
<path d="M20.6758 4.41074L16.5227 0.429072C16.2741 0.190815 15.9003 0.119553 15.5755 0.248507C15.2508 0.37746 15.039 0.681242 15.0389 1.01824V3.54157C15.0389 3.65663 14.9416 3.7499 14.8216 3.7499H1.37316C0.653076 3.7499 0.0693359 4.30955 0.0693359 4.99991C0.0693359 5.69026 0.653076 6.24991 1.37316 6.24991H14.8216C14.9416 6.24991 15.0389 6.34318 15.0389 6.45824V8.98157C15.039 9.31857 15.2508 9.62235 15.5755 9.7513C15.9003 9.88026 16.2741 9.809 16.5227 9.57074L20.6758 5.58907C21.0151 5.26366 21.0151 4.73616 20.6758 4.41074Z" fill="#070707"/>
</svg>
