<svg width="123" height="221" viewBox="0 0 123 221" fill="none" xmlns="http://www.w3.org/2000/svg">
<g opacity="0.1">
<circle cx="3.12826" cy="3.12826" r="3.12826" fill="#DC9B59"/>
<circle cx="3.12826" cy="17.3846" r="3.12826" fill="#DC9B59"/>
<circle cx="3.12826" cy="31.6414" r="3.12826" fill="#DC9B59"/>
<circle cx="3.12826" cy="45.8978" r="3.12826" fill="#DC9B59"/>
<circle cx="3.12826" cy="60.1541" r="3.12826" fill="#DC9B59"/>
<circle cx="3.12826" cy="74.411" r="3.12826" fill="#DC9B59"/>
<circle cx="3.12826" cy="88.6673" r="3.12826" fill="#DC9B59"/>
<circle cx="3.12826" cy="102.924" r="3.12826" fill="#DC9B59"/>
<circle cx="3.12826" cy="117.181" r="3.12826" fill="#DC9B59"/>
<circle cx="3.12826" cy="131.437" r="3.12826" fill="#DC9B59"/>
<circle cx="3.12826" cy="145.693" r="3.12826" fill="#DC9B59"/>
<circle cx="3.12826" cy="159.95" r="3.12826" fill="#DC9B59"/>
<circle cx="3.12826" cy="174.206" r="3.12826" fill="#DC9B59"/>
<circle cx="3.12826" cy="188.463" r="3.12826" fill="#DC9B59"/>
<circle cx="3.12826" cy="202.72" r="3.12826" fill="#DC9B59"/>
<circle cx="3.12826" cy="216.976" r="3.12826" fill="#DC9B59"/>
<circle cx="17.3851" cy="3.12826" r="3.12826" fill="#DC9B59"/>
<circle cx="17.3851" cy="17.3846" r="3.12826" fill="#DC9B59"/>
<circle cx="17.3851" cy="31.6414" r="3.12826" fill="#DC9B59"/>
<circle cx="17.3851" cy="45.8978" r="3.12826" fill="#DC9B59"/>
<circle cx="17.3851" cy="60.1541" r="3.12826" fill="#DC9B59"/>
<circle cx="17.3851" cy="74.411" r="3.12826" fill="#DC9B59"/>
<circle cx="17.3851" cy="88.6673" r="3.12826" fill="#DC9B59"/>
<circle cx="17.3851" cy="102.924" r="3.12826" fill="#DC9B59"/>
<circle cx="17.3851" cy="117.181" r="3.12826" fill="#DC9B59"/>
<circle cx="17.3851" cy="131.437" r="3.12826" fill="#DC9B59"/>
<circle cx="17.3851" cy="145.693" r="3.12826" fill="#DC9B59"/>
<circle cx="17.3851" cy="159.95" r="3.12826" fill="#DC9B59"/>
<circle cx="17.3851" cy="174.206" r="3.12826" fill="#DC9B59"/>
<circle cx="17.3851" cy="188.463" r="3.12826" fill="#DC9B59"/>
<circle cx="17.3851" cy="202.72" r="3.12826" fill="#DC9B59"/>
<circle cx="17.3851" cy="216.976" r="3.12826" fill="#DC9B59"/>
<circle cx="31.641" cy="3.12826" r="3.12826" fill="#DC9B59"/>
<circle cx="31.641" cy="17.3846" r="3.12826" fill="#DC9B59"/>
<circle cx="31.641" cy="31.6414" r="3.12826" fill="#DC9B59"/>
<circle cx="31.641" cy="45.8978" r="3.12826" fill="#DC9B59"/>
<circle cx="31.641" cy="60.1541" r="3.12826" fill="#DC9B59"/>
<circle cx="31.641" cy="74.411" r="3.12826" fill="#DC9B59"/>
<circle cx="31.641" cy="88.6673" r="3.12826" fill="#DC9B59"/>
<circle cx="31.641" cy="102.924" r="3.12826" fill="#DC9B59"/>
<circle cx="31.641" cy="117.181" r="3.12826" fill="#DC9B59"/>
<circle cx="31.641" cy="131.437" r="3.12826" fill="#DC9B59"/>
<circle cx="31.641" cy="145.693" r="3.12826" fill="#DC9B59"/>
<circle cx="31.641" cy="159.95" r="3.12826" fill="#DC9B59"/>
<circle cx="31.641" cy="174.206" r="3.12826" fill="#DC9B59"/>
<circle cx="31.641" cy="188.463" r="3.12826" fill="#DC9B59"/>
<circle cx="31.641" cy="202.72" r="3.12826" fill="#DC9B59"/>
<circle cx="31.641" cy="216.976" r="3.12826" fill="#DC9B59"/>
<circle cx="45.8978" cy="3.12826" r="3.12826" fill="#DC9B59"/>
<circle cx="45.8978" cy="17.3846" r="3.12826" fill="#DC9B59"/>
<circle cx="45.8978" cy="31.6414" r="3.12826" fill="#DC9B59"/>
<circle cx="45.8978" cy="45.8978" r="3.12826" fill="#DC9B59"/>
<circle cx="45.8978" cy="60.1541" r="3.12826" fill="#DC9B59"/>
<circle cx="45.8978" cy="74.411" r="3.12826" fill="#DC9B59"/>
<circle cx="45.8978" cy="88.6673" r="3.12826" fill="#DC9B59"/>
<circle cx="45.8978" cy="102.924" r="3.12826" fill="#DC9B59"/>
<circle cx="45.8978" cy="117.181" r="3.12826" fill="#DC9B59"/>
<circle cx="45.8978" cy="131.437" r="3.12826" fill="#DC9B59"/>
<circle cx="45.8978" cy="145.693" r="3.12826" fill="#DC9B59"/>
<circle cx="45.8978" cy="159.95" r="3.12826" fill="#DC9B59"/>
<circle cx="45.8978" cy="174.206" r="3.12826" fill="#DC9B59"/>
<circle cx="45.8978" cy="188.463" r="3.12826" fill="#DC9B59"/>
<circle cx="45.8978" cy="202.72" r="3.12826" fill="#DC9B59"/>
<circle cx="45.8978" cy="216.976" r="3.12826" fill="#DC9B59"/>
<circle cx="60.1546" cy="3.12826" r="3.12826" fill="#DC9B59"/>
<circle cx="60.1546" cy="17.3846" r="3.12826" fill="#DC9B59"/>
<circle cx="60.1546" cy="31.6414" r="3.12826" fill="#DC9B59"/>
<circle cx="60.1546" cy="45.8978" r="3.12826" fill="#DC9B59"/>
<circle cx="60.1546" cy="60.1541" r="3.12826" fill="#DC9B59"/>
<circle cx="60.1546" cy="74.411" r="3.12826" fill="#DC9B59"/>
<circle cx="60.1546" cy="88.6673" r="3.12826" fill="#DC9B59"/>
<circle cx="60.1546" cy="102.924" r="3.12826" fill="#DC9B59"/>
<circle cx="60.1546" cy="117.181" r="3.12826" fill="#DC9B59"/>
<circle cx="60.1546" cy="131.437" r="3.12826" fill="#DC9B59"/>
<circle cx="60.1546" cy="145.693" r="3.12826" fill="#DC9B59"/>
<circle cx="60.1546" cy="159.95" r="3.12826" fill="#DC9B59"/>
<circle cx="60.1546" cy="174.206" r="3.12826" fill="#DC9B59"/>
<circle cx="60.1546" cy="188.463" r="3.12826" fill="#DC9B59"/>
<circle cx="60.1546" cy="202.72" r="3.12826" fill="#DC9B59"/>
<circle cx="60.1546" cy="216.976" r="3.12826" fill="#DC9B59"/>
<circle cx="74.4105" cy="3.12826" r="3.12826" fill="#DC9B59"/>
<circle cx="74.4105" cy="17.3846" r="3.12826" fill="#DC9B59"/>
<circle cx="74.4105" cy="31.6414" r="3.12826" fill="#DC9B59"/>
<circle cx="74.4105" cy="45.8978" r="3.12826" fill="#DC9B59"/>
<circle cx="74.4105" cy="60.1541" r="3.12826" fill="#DC9B59"/>
<circle cx="74.4105" cy="74.411" r="3.12826" fill="#DC9B59"/>
<circle cx="74.4105" cy="88.6673" r="3.12826" fill="#DC9B59"/>
<circle cx="74.4105" cy="102.924" r="3.12826" fill="#DC9B59"/>
<circle cx="74.4105" cy="117.181" r="3.12826" fill="#DC9B59"/>
<circle cx="74.4105" cy="131.437" r="3.12826" fill="#DC9B59"/>
<circle cx="74.4105" cy="145.693" r="3.12826" fill="#DC9B59"/>
<circle cx="74.4105" cy="159.95" r="3.12826" fill="#DC9B59"/>
<circle cx="74.4105" cy="174.206" r="3.12826" fill="#DC9B59"/>
<circle cx="74.4105" cy="188.463" r="3.12826" fill="#DC9B59"/>
<circle cx="74.4105" cy="202.72" r="3.12826" fill="#DC9B59"/>
<circle cx="74.4105" cy="216.976" r="3.12826" fill="#DC9B59"/>
<circle cx="88.6673" cy="3.12826" r="3.12826" fill="#DC9B59"/>
<circle cx="88.6673" cy="17.3846" r="3.12826" fill="#DC9B59"/>
<circle cx="88.6673" cy="31.6414" r="3.12826" fill="#DC9B59"/>
<circle cx="88.6673" cy="45.8978" r="3.12826" fill="#DC9B59"/>
<circle cx="88.6673" cy="60.1541" r="3.12826" fill="#DC9B59"/>
<circle cx="88.6673" cy="74.411" r="3.12826" fill="#DC9B59"/>
<circle cx="88.6673" cy="88.6673" r="3.12826" fill="#DC9B59"/>
<circle cx="88.6673" cy="102.924" r="3.12826" fill="#DC9B59"/>
<circle cx="88.6673" cy="117.181" r="3.12826" fill="#DC9B59"/>
<circle cx="88.6673" cy="131.437" r="3.12826" fill="#DC9B59"/>
<circle cx="88.6673" cy="145.693" r="3.12826" fill="#DC9B59"/>
<circle cx="88.6673" cy="159.95" r="3.12826" fill="#DC9B59"/>
<circle cx="88.6673" cy="174.206" r="3.12826" fill="#DC9B59"/>
<circle cx="88.6673" cy="188.463" r="3.12826" fill="#DC9B59"/>
<circle cx="88.6673" cy="202.72" r="3.12826" fill="#DC9B59"/>
<circle cx="88.6673" cy="216.976" r="3.12826" fill="#DC9B59"/>
<circle cx="102.924" cy="3.12826" r="3.12826" fill="#DC9B59"/>
<circle cx="102.924" cy="17.3846" r="3.12826" fill="#DC9B59"/>
<circle cx="102.924" cy="31.6414" r="3.12826" fill="#DC9B59"/>
<circle cx="102.924" cy="45.8978" r="3.12826" fill="#DC9B59"/>
<circle cx="102.924" cy="60.1541" r="3.12826" fill="#DC9B59"/>
<circle cx="102.924" cy="74.411" r="3.12826" fill="#DC9B59"/>
<circle cx="102.924" cy="88.6673" r="3.12826" fill="#DC9B59"/>
<circle cx="102.924" cy="102.924" r="3.12826" fill="#DC9B59"/>
<circle cx="102.924" cy="117.181" r="3.12826" fill="#DC9B59"/>
<circle cx="102.924" cy="131.437" r="3.12826" fill="#DC9B59"/>
<circle cx="102.924" cy="145.693" r="3.12826" fill="#DC9B59"/>
<circle cx="102.924" cy="159.95" r="3.12826" fill="#DC9B59"/>
<circle cx="102.924" cy="174.206" r="3.12826" fill="#DC9B59"/>
<circle cx="102.924" cy="188.463" r="3.12826" fill="#DC9B59"/>
<circle cx="102.924" cy="202.72" r="3.12826" fill="#DC9B59"/>
<circle cx="102.924" cy="216.976" r="3.12826" fill="#DC9B59"/>
<circle cx="117.18" cy="3.12826" r="3.12826" fill="#DC9B59"/>
<circle cx="117.18" cy="17.3846" r="3.12826" fill="#DC9B59"/>
<circle cx="117.18" cy="31.6414" r="3.12826" fill="#DC9B59"/>
<circle cx="117.18" cy="45.8978" r="3.12826" fill="#DC9B59"/>
<circle cx="117.18" cy="60.1541" r="3.12826" fill="#DC9B59"/>
<circle cx="117.18" cy="74.411" r="3.12826" fill="#DC9B59"/>
<circle cx="117.18" cy="88.6673" r="3.12826" fill="#DC9B59"/>
<circle cx="117.18" cy="102.924" r="3.12826" fill="#DC9B59"/>
<circle cx="117.18" cy="117.181" r="3.12826" fill="#DC9B59"/>
<circle cx="117.18" cy="131.437" r="3.12826" fill="#DC9B59"/>
<circle cx="117.18" cy="145.693" r="3.12826" fill="#DC9B59"/>
<circle cx="117.18" cy="159.95" r="3.12826" fill="#DC9B59"/>
<circle cx="117.18" cy="174.206" r="3.12826" fill="#DC9B59"/>
<circle cx="117.18" cy="188.463" r="3.12826" fill="#DC9B59"/>
<circle cx="117.18" cy="202.72" r="3.12826" fill="#DC9B59"/>
<circle cx="117.18" cy="216.976" r="3.12826" fill="#DC9B59"/>
</g>
</svg>
