
<svg width="196px" height="151px" viewBox="0 0 196 151" version="1.1" xmlns="http://www.w3.org/2000/svg" xmlns:xlink="http://www.w3.org/1999/xlink">
  <!-- Generator: Sketch 49.3 (51167) - http://www.bohemiancoding.com/sketch -->
  <desc>Created with Sketch.</desc>
  <defs></defs>
  <g id="Page-1" stroke="none" stroke-width="1" fill="none" fill-rule="evenodd">
    <g id="Logo_RGB" fill-rule="nonzero">
      <polygon id="Shape" fill="#000000" points="9.6 52.8 25.4 52.8 16 98.1 0.2 98.1"></polygon>
      <path d="M23.7,86 C27.7,87.7 32.1,88.6 36.4,88.6 C38.9,88.6 45.2,88.3 45.2,84.6 C45.2,78.2 26.5,81.5 26.5,66.5 C26.5,55.9 38.9,51.6 49.4,51.6 C53.3,51.6 58.8,52.5 64.5,54.3 L61.2,64.6 C57.2,62.9 53.4,62.1 48.7,62.1 C45.2,62.1 41.4,62.9 41.4,66 C41.4,71 61,70.7 61,82.1 C61,93.3 51.5,98.9 39.8,99.1 C32.9,99.2 25.6,98.1 20.7,96.8 L23.7,86 Z" id="Shape" fill="#000000"></path>
      <path d="M92.5,62.6 C84.9,62.6 80.2,70.8 80.2,78 C80.2,84.1 83.4,88.2 88.7,88.1 C96,88.1 100.6,82 100.6,71.7 C100.7,67 98.6,62.6 92.5,62.6 Z M87.6,99.1 C70.8,99.1 64,89.8 64,78.4 C64,62.5 75.5,51.7 93.2,51.7 C108.6,51.7 116.8,60.6 116.8,72 C116.9,90.8 104.6,99.1 87.6,99.1 Z" id="Shape" fill="#000000"></path>
      <polygon id="Shape" fill="#000000" points="129.9 32.9 145.7 32.9 132.1 98.1 116.3 98.1"></polygon>
      <path d="M169.2,91.5 L169,91.3 L169,91.5 C165.7,96.7 159.9,98.9 153.8,98.9 C144.1,98.9 138.7,94.6 138.7,85.8 C138.7,74.7 149.8,69.2 163.7,69.2 C166.8,69.2 170,69.5 172.1,69.6 C172.3,69 172.3,68.4 172.3,67.8 C172.3,64.6 169.1,62 163.9,62 C158.2,62 154.4,62.9 149.2,65.6 L150.8,54.2 C155.4,52.6 160.4,51.6 167.4,51.6 C178.2,51.6 187.1,55.9 187.1,67 C187.1,74.1 183.1,84.3 181.4,98 L168.6,98 L169.2,91.5 Z M158.8,88.5 C165.5,88.5 169.5,83.9 170.6,77.8 C169.3,77.5 167.4,77.5 166.4,77.5 C158.9,77.2 153.4,79.9 153.4,83.9 C153.4,86.1 155.4,88.5 158.8,88.5 Z" id="Shape" fill="#000000"></path>
      <polygon id="Shape" fill="#C8102E" points="21.1 0.3 54 0.3 44.6 45.6 11.7 45.6"></polygon>
      <polygon id="Shape" fill="#004D7E" points="146.1 104.8 179 104.8 169.6 150.1 136.8 150.1"></polygon>
      <path d="M191,47.2 C193.3,47.2 195.1,49 195.1,51.3 C195.1,53.6 193.3,55.4 191,55.4 C188.7,55.4 186.9,53.6 186.9,51.3 C186.8,49.1 188.7,47.2 191,47.2 Z M191,54.8 C192.9,54.8 194.3,53.3 194.3,51.3 C194.3,49.3 192.9,47.8 191,47.8 C189.1,47.8 187.7,49.3 187.7,51.3 C187.6,53.3 189,54.8 191,54.8 Z M189.4,48.9 L191.2,48.9 C192.3,48.9 192.9,49.3 192.9,50.3 C192.9,51.1 192.4,51.6 191.7,51.6 L193.1,53.7 L192.3,53.7 L191,51.6 L190.3,51.6 L190.3,53.7 L189.5,53.7 L189.5,48.9 L189.4,48.9 Z M190.2,51 L191.1,51 C191.7,51 192.1,50.9 192.1,50.2 C192.1,49.7 191.6,49.5 191.1,49.5 L190.2,49.5 L190.2,51 Z" id="Shape" fill="#000000"></path>
    </g>
  </g>
</svg>
