<svg width="2316" height="313" viewBox="0 0 2316 313" fill="none" xmlns="http://www.w3.org/2000/svg">
<path fill-rule="evenodd" clip-rule="evenodd" d="M0 0H2316V313H0V0Z" fill="white"/>
<path fill-rule="evenodd" clip-rule="evenodd" d="M612.61 290.208C573.687 286.241 543.092 270.383 512.509 250.571L511.121 278.318H308.132C308.132 257.163 309.519 236.032 305.356 217.55C292.84 237.35 284.501 258.481 269.209 276.988L226.111 278.306C210.819 258.481 202.48 237.35 187.188 218.868H185.801C184.413 228.109 184.413 241.318 184.413 249.24C185.801 253.208 187.188 255.857 184.413 261.13C185.801 262.449 184.413 271.689 185.801 276.988C123.235 276.988 82.9246 279.637 20.3584 276.988C18.9705 249.264 18.9705 221.493 20.3584 193.77C34.262 192.451 50.9411 196.419 57.9059 184.529C57.9059 162.079 60.6814 138.299 56.5181 117.168C48.1785 107.927 30.0987 115.85 20.3714 110.564V28.677C75.9857 26.0279 203.894 26.0279 210.845 29.9954C228.925 57.7306 245.604 86.7841 262.283 114.519C283.139 86.7841 299.818 59.0489 317.898 29.9954C382.307 28.677 446.738 28.677 511.147 29.9954L512.535 57.7305C566.762 18.1053 655.747 4.89689 726.64 28.677C748.883 35.2812 768.351 44.5222 787.805 59.049C789.193 49.808 787.805 39.2486 789.193 29.9954C843.42 28.677 2022.4 32.6321 2022.4 32.6321C2061.33 56.4121 2096.09 84.1473 2135 107.915L2136.39 105.278V32.6321C2190.63 29.9953 2246.23 32.6321 2297.68 32.6321C2299.07 60.3516 2299.07 88.1181 2297.68 115.838C2285.16 117.156 2268.47 111.883 2262.92 123.773C2260.13 180.561 2262.92 225.46 2262.92 280.93H2180.9C2144.75 253.208 2107.21 228.109 2071.06 201.68L2068.27 202.998V280.918C2041.85 282.237 1612.25 279.624 1612.25 279.624C1610.87 250.559 1612.25 222.836 1613.64 196.406C1624.76 193.757 1644.21 200.374 1651.19 188.484C1652.58 167.353 1653.95 142.242 1651.19 121.111C1642.82 111.87 1623.37 115.825 1610.87 115.825C1581.66 118.474 1577.51 148.846 1563.59 167.353C1539.96 202.998 1516.32 242.624 1492.69 279.612H1423.18C1410.67 262.424 1398.15 239.975 1384.25 222.823C1382.86 242.624 1384.25 259.787 1384.25 279.612C1346.7 280.906 814.212 279.612 789.193 278.294C786.418 270.347 790.581 259.787 787.805 250.546C751.659 279.612 704.397 291.502 652.959 294.127C640.417 290.208 626.513 292.82 612.61 290.208ZM171.884 192.451C167.721 177.937 156.593 168.671 151.029 155.475C149.641 164.728 148.253 179.243 152.417 188.509C156.593 192.451 164.932 193.77 171.884 192.451ZM345.666 187.178C344.278 176.619 347.054 164.728 342.89 155.475C334.551 167.378 327.599 180.561 320.647 192.451C330.375 195.1 338.714 192.451 345.666 187.178ZM1293.85 193.77C1310.54 188.496 1298.02 167.365 1303.6 155.475L1343.9 154.157L1345.28 151.52L1325.83 123.785C1307.74 109.258 1285.51 118.499 1260.48 115.85C1253.54 117.168 1245.17 115.85 1243.81 123.785C1242.42 147.565 1241.02 173.982 1243.81 195.113C1260.49 193.77 1277.18 195.1 1293.85 193.77ZM1118.68 184.529V122.442C1117.29 117.156 1108.95 117.156 1106.17 117.156V144.891C1104.79 151.508 1095.06 146.21 1092.27 148.859V147.54C1074.2 150.177 1053.35 147.54 1035.27 148.859V159.418L1104.79 160.736C1106.17 171.296 1104.79 183.186 1106.17 193.757C1111.73 192.451 1117.29 189.802 1118.68 184.529ZM1930.61 193.77C1936.19 193.77 1940.36 191.121 1941.73 187.178L1943.11 129.058C1941.73 122.454 1938.96 117.168 1932 118.499L1930.61 148.871C1908.37 151.52 1881.95 147.553 1859.7 150.189V160.761C1884.74 162.079 1906.98 160.761 1930.61 163.41V193.77ZM1475.98 151.52C1481.56 139.63 1491.29 130.389 1491.29 117.168C1489.9 113.213 1485.71 109.246 1481.56 109.246C1474.59 109.246 1464.87 107.927 1460.69 114.532C1455.14 127.74 1469.06 138.312 1474.59 151.52H1475.98ZM2172.52 134.344L2171.13 119.817C2166.98 115.85 2155.86 115.85 2148.89 117.168C2157.23 122.454 2162.79 130.377 2172.52 134.344ZM598.706 220.199C618.174 234.738 655.708 243.979 682.128 232.089C712.71 220.199 736.354 189.802 736.354 156.794C734.966 126.422 721.063 100.005 697.432 86.7965C676.577 72.2697 639.042 68.3022 615.398 80.1922C586.203 92.0822 565.348 119.817 563.96 151.52C565.348 167.378 566.736 183.21 575.075 195.1C580.639 205.66 588.979 213.582 598.706 220.199ZM2058.53 195.1H2059.92C2050.17 189.802 2044.61 181.892 2033.5 177.937V189.802C2037.66 197.75 2050.18 195.1 2058.53 195.1Z" fill="#295F94"/>
<path fill-rule="evenodd" clip-rule="evenodd" d="M159.368 251.889C160.756 243.967 160.756 230.758 160.756 224.142C163.532 209.627 144.064 220.199 137.125 216.219C130.173 213.57 125.997 209.627 123.222 203.011C120.446 168.671 121.834 126.409 123.222 88.1026H137.125C171.884 143.573 203.855 197.737 238.614 253.208C244.178 253.208 252.517 254.526 256.693 251.889C281.712 209.627 305.356 168.671 331.762 126.409C344.278 114.519 344.278 81.4984 372.086 89.4333L373.473 185.86C372.085 192.452 372.086 200.399 369.297 205.66C360.957 216.219 348.442 218.868 334.538 217.55C334.538 229.44 330.362 243.979 335.926 253.22C355.393 253.22 376.249 254.538 392.928 254.538C423.511 251.889 455.494 255.857 486.077 253.22C486.077 241.33 487.465 228.122 484.689 217.55C472.173 217.55 454.106 218.868 448.542 204.342L447.154 146.234C448.542 131.708 441.59 109.258 454.106 96.0498C459.67 88.1149 473.574 89.4456 486.077 89.4456C487.464 77.5556 486.077 65.6656 486.077 53.7755L337.314 52.4571C310.894 89.4456 290.039 127.74 265.02 164.741C239.988 129.071 219.133 90.7763 196.903 52.4571C145.452 52.4571 96.7893 52.4572 46.7389 53.7755V88.1149L70.3828 89.4333C77.3346 92.07 81.4979 99.9927 84.2864 106.609V196.431C82.8986 205.672 75.9468 212.264 68.9951 216.232C60.6555 218.881 48.1397 212.264 45.3641 220.199C46.7519 232.089 45.3641 241.33 46.7519 253.22C84.2994 253.22 123.222 253.22 159.368 251.889ZM1078.37 254.538C1081.14 232.089 1078.37 206.991 1078.37 184.529H1050.56L1047.78 192.451C1046.4 206.991 1032.49 213.583 1021.36 218.881C1015.8 218.881 1010.25 217.562 1007.46 220.199L930.992 218.881H928.216C928.216 200.399 928.216 181.892 929.604 164.729C940.719 164.729 953.235 164.729 964.363 167.378C976.879 170.002 979.654 183.211 982.443 193.782H1010.25L1011.64 114.532C1000.52 117.168 976.879 106.609 979.667 123.773C974.103 135.663 962.975 142.255 949.084 143.585C942.133 142.267 932.392 146.222 928.229 140.949C928.229 123.773 928.229 106.609 929.617 90.764C940.732 89.4456 954.635 92.0823 964.376 89.4456C969.94 92.0823 978.279 92.0823 983.83 89.4456C992.17 92.0823 999.122 90.764 1006.07 90.764C1013.03 88.1149 1021.36 92.0824 1029.7 92.0824C1038.06 96.0498 1046.4 103.972 1047.78 113.213C1043.62 133.014 1068.64 121.136 1078.37 123.773C1079.75 101.323 1081.14 77.5433 1078.37 53.7632H1017.19L1014.41 55.0815H814.199C814.199 65.6409 812.811 77.5309 814.199 89.421L837.83 90.7394C846.169 93.3761 851.733 102.629 853.121 111.87C851.733 143.573 854.509 176.594 850.346 205.648C843.394 217.538 829.49 218.856 814.199 217.538C814.199 229.428 811.423 241.318 814.199 254.526C901.797 254.538 990.769 255.857 1078.37 254.538ZM1356.43 254.538C1359.21 230.758 1357.81 209.627 1356.43 185.86H1330.01L1327.24 200.399C1323.07 208.321 1318.88 217.562 1309.15 218.881H1220.17L1217.4 216.232V130.389C1217.4 118.499 1217.4 106.609 1224.34 97.3682C1231.31 88.1273 1246.58 92.0824 1257.7 90.764C1259.09 78.874 1259.09 66.9839 1257.7 55.0938L1106.16 53.7755L1104.77 56.4246V89.4456C1113.11 90.764 1121.45 89.4456 1128.4 92.0824C1136.74 96.0498 1143.7 105.291 1145.1 114.532C1145.1 143.585 1146.48 177.937 1140.92 205.66C1133.97 218.868 1118.68 218.868 1104.77 220.199V254.538H1356.43ZM1480.17 255.857C1505.2 214.901 1528.83 173.97 1552.46 133.014C1563.58 111.883 1580.26 88.1026 1610.85 92.0701C1613.64 80.1801 1613.64 69.6207 1612.24 56.4122L1489.88 55.0938L1488.5 90.764C1492.67 90.764 1498.22 93.4008 1501.01 92.0824C1503.8 93.4008 1507.98 94.7192 1510.74 97.3682C1517.7 103.972 1516.32 114.544 1516.32 123.785L1474.59 188.509C1463.48 170.002 1449.56 150.19 1438.45 133.026C1435.66 123.785 1428.72 115.85 1432.9 106.609C1435.66 97.3682 1445.41 90.764 1455.14 90.764C1455.14 77.5556 1456.53 65.6655 1453.75 55.0938C1441.24 55.0938 1423.18 53.7755 1416.2 55.0938C1412.05 52.4448 1407.86 57.7307 1403.69 53.7755C1377.27 56.4246 1336.96 53.7755 1303.6 56.4246V89.4456L1304.96 92.0824C1324.44 90.764 1336.96 96.0498 1349.47 107.928C1378.66 156.794 1407.86 206.991 1437.05 255.869L1480.17 255.857ZM1637.27 255.857H1862.49C1866.67 259.8 1872.22 253.208 1877.8 257.15C1884.74 254.526 1895.86 255.857 1905.62 255.857V188.496L1904.2 185.847H1872.23C1870.85 189.79 1868.08 193.77 1868.08 197.737C1862.51 210.946 1849.99 218.868 1834.7 220.187C1806.9 218.868 1776.31 220.187 1751.28 218.868C1749.89 201.726 1749.89 184.508 1751.28 167.365L1755.45 166.022C1766.57 164.729 1769.36 166.022 1780.49 167.365C1793 171.308 1802.73 183.198 1804.12 195.088H1831.94V117.156H1804.12C1804.12 123.76 1799.94 131.683 1795.78 135.65C1784.64 144.891 1766.57 146.21 1751.26 143.573L1749.88 94.7068L1752.66 90.7517C1784.64 93.3884 1819.41 88.1026 1849.99 94.7068C1862.51 98.6619 1870.83 111.883 1872.23 125.079C1883.35 123.76 1894.48 126.397 1905.62 123.76C1905.62 101.311 1906.98 74.8942 1905.62 56.3999C1852.78 56.3999 1791.6 55.0815 1740.15 55.0815C1706.79 57.7183 1670.64 53.7632 1637.27 56.3999C1637.27 69.6083 1634.48 80.1677 1637.27 90.7394C1651.18 90.7394 1667.84 90.7394 1674.82 105.266C1678.97 134.32 1676.21 167.365 1676.21 197.725L1670.63 209.615C1663.69 221.505 1648.39 217.538 1635.87 220.174L1637.27 255.857ZM2043.24 255.857C2046.03 247.91 2044.63 236.032 2043.24 228.109C2046.03 226.791 2043.24 224.142 2043.24 221.517C2034.9 222.836 2030.72 217.55 2022.4 218.868C2018.38 217.305 2014.86 214.781 2012.18 211.542C2009.5 208.303 2007.75 204.46 2007.09 200.386V129.046C2069.66 169.99 2130.84 214.889 2192.02 257.15H2219.81C2228.18 254.526 2228.18 259.8 2236.5 257.15C2236.5 218.868 2237.89 173.957 2237.89 136.969C2237.89 126.409 2233.71 110.552 2240.68 101.311C2246.23 89.421 2261.52 93.3761 2275.44 92.0701C2275.44 80.1801 2276.83 66.9716 2274.05 56.4122C2236.5 57.7306 2198.97 55.0939 2161.42 56.4122V92.0701C2169.79 92.0701 2180.9 92.07 2187.84 93.3884C2193.39 96.0375 2198.95 98.6743 2198.95 105.278V180.561C2136.39 138.3 2076.6 96.0375 2014.03 56.4122H1930.61V92.0701H1947.3C1955.64 94.7068 1966.76 102.642 1968.14 113.201L1966.76 197.737L1963.99 209.627C1959.82 214.901 1952.85 221.517 1943.13 221.517C1938.98 222.836 1933.4 220.199 1929.22 222.836C1929.22 234.726 1927.86 245.285 1930.61 255.857C1969.55 257.163 2002.9 255.857 2043.24 255.857ZM627.901 262.461C576.463 257.163 529.188 240.012 508.333 195.101C497.205 173.97 495.817 147.553 504.157 123.773C516.672 78.8617 563.934 53.7632 611.209 47.1713C633.452 43.2038 655.695 43.2039 679.326 43.2039C684.89 47.1713 693.23 44.5222 698.781 47.1713C746.056 55.0939 789.154 81.5107 801.67 126.422C811.397 170.002 796.106 213.583 759.959 237.363C723.813 258.494 680.714 267.759 629.276 265.11L627.901 262.461ZM601.495 220.199C620.949 234.738 658.497 242.648 684.916 230.758C715.499 220.199 737.755 188.496 739.143 156.781C737.755 126.409 723.851 99.9926 698.82 85.4658C677.977 72.2574 640.43 68.29 618.187 80.18C588.992 90.7517 568.136 118.487 566.736 150.177C568.123 166.022 568.123 181.88 577.864 195.088C583.415 205.66 591.754 213.582 601.495 220.199Z" fill="white"/>
<path fill-rule="evenodd" clip-rule="evenodd" d="M601.495 220.199C620.949 234.738 658.497 242.648 684.916 230.758C715.499 220.199 737.755 188.496 739.143 156.781C737.755 126.409 723.851 99.9926 698.82 85.4659C677.977 72.2574 640.43 68.29 618.187 80.18C588.992 90.7517 568.136 118.487 566.736 150.177C568.123 166.022 568.123 181.88 577.864 195.088C583.415 205.66 591.754 213.582 601.495 220.199ZM593.155 155.475C593.155 123.773 619.575 100.005 652.933 100.005C684.903 100.005 711.323 123.785 711.323 155.475C711.323 185.86 684.903 210.958 652.933 210.958C619.562 210.958 593.155 185.86 593.155 155.475Z" fill="#295F94"/>
</svg>
