<svg width="45" height="44" viewBox="0 0 45 44" fill="none" xmlns="http://www.w3.org/2000/svg">
<rect x="0.0136719" y="0.0732422" width="44" height="43.8542" rx="21.9271" fill="white"/>
<path d="M34.0137 22.0732C34.0137 15.4458 28.6411 10.0732 22.0137 10.0732C15.3863 10.0732 10.0137 15.4458 10.0137 22.0732C10.0137 28.0627 14.4019 33.0272 20.1387 33.9275V25.542H17.0918V22.0732H20.1387V19.4295C20.1387 16.422 21.9302 14.7607 24.6713 14.7607C25.9838 14.7607 27.3574 14.9951 27.3574 14.9951V17.9482H25.8443C24.3537 17.9482 23.8887 18.8733 23.8887 19.8232V22.0732H27.2168L26.6848 25.542H23.8887V33.9275C29.6255 33.0272 34.0137 28.0627 34.0137 22.0732Z" fill="#070707"/>
</svg>
