<svg width="44" height="44" viewBox="0 0 44 44" fill="none" xmlns="http://www.w3.org/2000/svg">
<rect width="44" height="44" rx="22" fill="white"/>
<path d="M32.2234 10H11.7719C10.7922 10 10 10.7734 10 11.7297V32.2656C10 33.2219 10.7922 34 11.7719 34H32.2234C33.2031 34 34 33.2219 34 32.2703V11.7297C34 10.7734 33.2031 10 32.2234 10ZM17.1203 30.4516H13.5578V18.9953H17.1203V30.4516ZM15.3391 17.4344C14.1953 17.4344 13.2719 16.5109 13.2719 15.3719C13.2719 14.2328 14.1953 13.3094 15.3391 13.3094C16.4781 13.3094 17.4016 14.2328 17.4016 15.3719C17.4016 16.5062 16.4781 17.4344 15.3391 17.4344ZM30.4516 30.4516H26.8937V24.8828C26.8937 23.5562 26.8703 21.8453 25.0422 21.8453C23.1906 21.8453 22.9094 23.2937 22.9094 24.7891V30.4516H19.3563V18.9953H22.7687V20.5609H22.8156C23.2891 19.6609 24.4516 18.7094 26.1813 18.7094C29.7859 18.7094 30.4516 21.0813 30.4516 24.1656V30.4516Z" fill="#070707"/>
</svg>
