<svg width="44" height="44" viewBox="0 0 44 44" fill="none" xmlns="http://www.w3.org/2000/svg">
<rect x="0.0136719" y="0.00195312" width="43.9859" height="43.9953" rx="21.993" fill="white"/>
<path d="M22.0137 12.1629C25.2199 12.1629 25.5996 12.177 26.8605 12.2332C28.0324 12.2848 28.6652 12.4816 29.0871 12.6457C29.6449 12.8613 30.048 13.1238 30.4652 13.541C30.8871 13.9629 31.1449 14.3613 31.3605 14.9191C31.5246 15.341 31.7215 15.9785 31.773 17.1457C31.8293 18.4113 31.8434 18.791 31.8434 21.9926C31.8434 25.1988 31.8293 25.5785 31.773 26.8395C31.7215 28.0113 31.5246 28.6441 31.3605 29.066C31.1449 29.6238 30.8824 30.027 30.4652 30.4441C30.0434 30.866 29.6449 31.1238 29.0871 31.3395C28.6652 31.5035 28.0277 31.7004 26.8605 31.752C25.5949 31.8082 25.2152 31.8223 22.0137 31.8223C18.8074 31.8223 18.4277 31.8082 17.1668 31.752C15.9949 31.7004 15.3621 31.5035 14.9402 31.3395C14.3824 31.1238 13.9793 30.8613 13.5621 30.4441C13.1402 30.0223 12.8824 29.6238 12.6668 29.066C12.5027 28.6441 12.3059 28.0066 12.2543 26.8395C12.198 25.5738 12.184 25.1941 12.184 21.9926C12.184 18.7863 12.198 18.4066 12.2543 17.1457C12.3059 15.9738 12.5027 15.341 12.6668 14.9191C12.8824 14.3613 13.1449 13.9582 13.5621 13.541C13.984 13.1191 14.3824 12.8613 14.9402 12.6457C15.3621 12.4816 15.9996 12.2848 17.1668 12.2332C18.4277 12.177 18.8074 12.1629 22.0137 12.1629ZM22.0137 10.002C18.7559 10.002 18.348 10.016 17.0684 10.0723C15.7934 10.1285 14.9168 10.3348 14.1574 10.6301C13.3652 10.9395 12.6949 11.3473 12.0293 12.0176C11.359 12.6832 10.9512 13.3535 10.6418 14.141C10.3465 14.9051 10.1402 15.777 10.084 17.052C10.0277 18.3363 10.0137 18.7441 10.0137 22.002C10.0137 25.2598 10.0277 25.6676 10.084 26.9473C10.1402 28.2223 10.3465 29.0988 10.6418 29.8582C10.9512 30.6504 11.359 31.3207 12.0293 31.9863C12.6949 32.652 13.3652 33.0645 14.1527 33.3691C14.9168 33.6645 15.7887 33.8707 17.0637 33.927C18.3434 33.9832 18.7512 33.9973 22.009 33.9973C25.2668 33.9973 25.6746 33.9832 26.9543 33.927C28.2293 33.8707 29.1059 33.6645 29.8652 33.3691C30.6527 33.0645 31.323 32.652 31.9887 31.9863C32.6543 31.3207 33.0668 30.6504 33.3715 29.8629C33.6668 29.0988 33.873 28.227 33.9293 26.952C33.9855 25.6723 33.9996 25.2645 33.9996 22.0066C33.9996 18.7488 33.9855 18.341 33.9293 17.0613C33.873 15.7863 33.6668 14.9098 33.3715 14.1504C33.0762 13.3535 32.6684 12.6832 31.998 12.0176C31.3324 11.352 30.6621 10.9395 29.8746 10.6348C29.1105 10.3395 28.2387 10.1332 26.9637 10.077C25.6793 10.016 25.2715 10.002 22.0137 10.002Z" fill="#070707"/>
<path d="M22.0137 15.8379C18.6105 15.8379 15.8496 18.5988 15.8496 22.002C15.8496 25.4051 18.6105 28.166 22.0137 28.166C25.4168 28.166 28.1777 25.4051 28.1777 22.002C28.1777 18.5988 25.4168 15.8379 22.0137 15.8379ZM22.0137 26.0004C19.8059 26.0004 18.0152 24.2098 18.0152 22.002C18.0152 19.7941 19.8059 18.0035 22.0137 18.0035C24.2215 18.0035 26.0121 19.7941 26.0121 22.002C26.0121 24.2098 24.2215 26.0004 22.0137 26.0004Z" fill="#070707"/>
<path d="M29.8605 15.5943C29.8605 16.3912 29.2137 17.0334 28.4215 17.0334C27.6246 17.0334 26.9824 16.3865 26.9824 15.5943C26.9824 14.7975 27.6293 14.1553 28.4215 14.1553C29.2137 14.1553 29.8605 14.8021 29.8605 15.5943Z" fill="#070707"/>
</svg>
