<?xml version="1.0" encoding="utf-8"?>
<!-- Generator: Adobe Illustrator 27.4.0, SVG Export Plug-In . SVG Version: 6.00 Build 0)  -->
<svg version="1.1" id="Warstwa_1" xmlns="http://www.w3.org/2000/svg" xmlns:xlink="http://www.w3.org/1999/xlink" x="0px" y="0px"
	 viewBox="0 0 102 101" style="enable-background:new 0 0 102 101;" xml:space="preserve">
<style type="text/css">
	.st0{fill:#FAF7F4;}
</style>
<g>
	<path shape-rendering="crispEdges" class="st0" d="M51,4L51,4c25.7,0,46.5,20.8,46.5,46.5l0,0C97.5,76.2,76.7,97,51,97l0,0
		C25.3,97,4.5,76.2,4.5,50.5l0,0C4.5,24.8,25.3,4,51,4z"/>
	<path d="M35.7,43.6c0,0.1,0,0.3,0,0.4c0,0.1,0.1,0.3,0.2,0.4c0.1,0.1,0.2,0.2,0.3,0.3c0.1,0.1,0.3,0.1,0.4,0.1H50v11.5h-8.6
		c-0.3,0-0.5,0.1-0.7,0.3c-0.2,0.2-0.3,0.4-0.3,0.7c0,0.3,0.1,0.5,0.3,0.7c0.2,0.2,0.4,0.3,0.7,0.3H50v13.4c0,0.3,0.1,0.5,0.3,0.7
		c0.2,0.2,0.4,0.3,0.7,0.3s0.5-0.1,0.7-0.3c0.2-0.2,0.3-0.4,0.3-0.7V58.2h8.6c0.3,0,0.5-0.1,0.7-0.3c0.2-0.2,0.3-0.4,0.3-0.7
		c0-0.3-0.1-0.5-0.3-0.7s-0.4-0.3-0.7-0.3H52V44.7h13.4c0.1,0,0.3,0,0.4-0.1c0.1-0.1,0.2-0.1,0.3-0.3c0.1-0.1,0.2-0.2,0.2-0.4
		c0-0.1,0-0.3,0-0.4c0-0.1-2.2-11.7-14.4-12.3c0,0,0,0,0,0v-1.9c0-0.3-0.1-0.5-0.3-0.7c-0.2-0.2-0.4-0.3-0.7-0.3s-0.5,0.1-0.7,0.3
		c-0.2,0.2-0.3,0.4-0.3,0.7v1.9c0,0,0,0,0,0C37.9,31.9,35.7,43.5,35.7,43.6z M51,33.2c3-0.1,5.9,0.8,8.3,2.5
		c2.4,1.7,4.1,4.2,4.9,7.1H37.8c0.8-2.9,2.5-5.4,4.9-7.1C45.1,34,48,33.1,51,33.2z M70.2,52.7L67.4,63l1.9,8.4c0,0.1,0,0.3,0,0.4
		c0,0.1-0.1,0.2-0.1,0.4c-0.1,0.1-0.2,0.2-0.3,0.3s-0.2,0.1-0.3,0.2c-0.1,0-0.3,0-0.4,0c-0.1,0-0.2-0.1-0.4-0.1
		c-0.1-0.1-0.2-0.2-0.3-0.3c-0.1-0.1-0.1-0.2-0.1-0.3l-1.8-7.9h-8.1l-1.8,7.9c0,0.1-0.1,0.2-0.1,0.3c-0.1,0.1-0.2,0.2-0.3,0.3
		c-0.1,0.1-0.2,0.1-0.4,0.1c-0.1,0-0.3,0-0.4,0c-0.1,0-0.2-0.1-0.3-0.2c-0.1-0.1-0.2-0.2-0.3-0.3c-0.1-0.1-0.1-0.2-0.1-0.4
		c0-0.1,0-0.3,0-0.4l1.9-8.6c0-0.2,0.2-0.4,0.3-0.5c0.2-0.1,0.4-0.2,0.6-0.2h8.9l2.7-9.9c0-0.1,0.1-0.2,0.2-0.3
		c0.1-0.1,0.2-0.2,0.3-0.3c0.1-0.1,0.2-0.1,0.4-0.1c0.1,0,0.3,0,0.4,0s0.2,0.1,0.3,0.2c0.1,0.1,0.2,0.2,0.2,0.3
		c0.1,0.1,0.1,0.2,0.1,0.4C70.2,52.4,70.2,52.5,70.2,52.7z M33.7,52.2l2.7,9.9h8.9c0.2,0,0.4,0.1,0.6,0.2c0.2,0.1,0.3,0.3,0.3,0.5
		l1.9,8.6c0,0.1,0,0.3,0,0.4c0,0.1-0.1,0.2-0.1,0.4c-0.1,0.1-0.2,0.2-0.3,0.3s-0.2,0.1-0.3,0.2c-0.1,0-0.3,0-0.4,0
		c-0.1,0-0.2-0.1-0.4-0.1c-0.1-0.1-0.2-0.2-0.3-0.3c-0.1-0.1-0.1-0.2-0.1-0.3l-1.8-7.9h-8.1l-1.8,7.9c-0.1,0.2-0.2,0.5-0.4,0.6
		c-0.2,0.1-0.5,0.2-0.7,0.1c-0.2-0.1-0.5-0.2-0.6-0.4c-0.1-0.2-0.2-0.5-0.1-0.7l1.9-8.4l-2.8-10.3c0-0.1,0-0.2,0-0.4
		c0-0.1,0.1-0.2,0.1-0.4c0.1-0.2,0.3-0.4,0.6-0.4c0.2-0.1,0.5,0,0.7,0.1S33.6,51.9,33.7,52.2z"/>
</g>
<circle class="st0" cx="51.3" cy="50.3" r="46.3"/>
<path d="M52.3,28.8l-23.7,30h4.2l8-10.9l1.5,1.1l-7.2,9.8H38l3-3.2l-0.2,3.2H53l20.5-30h-5.3L52.5,51.9l-1.6-1.1l15-22h-3.7l-5,7
	l-1.5-1.1l4.2-5.9H52.3z M74.4,30.9L54.5,60v3.2l7.2-10.6l1.6,1.1l-8.8,12.9V70l20-30.7v-1.2l-2.3,0.6l2.3-3.5V30.9z M27.6,60.7
	v11.6h2.5l1.1-4l1.2,4h4C36.1,71.6,36,71,36,70.3c0-2,1.1-3.7,2.7-4.9c1.6-1.2,3.8-1.9,6.2-1.9c2.4,0,4.6,0.7,6.2,1.9
	c0.6,0.4,1.1,0.9,1.5,1.5v-6.3H27.6z M44.9,65.5c-2,0-3.8,0.6-5.1,1.5c-1.3,0.9-1.9,2.1-1.9,3.3c0,0.7,0.2,1.3,0.6,1.9h1.7
	c-0.3-0.5-0.6-1.1-0.6-1.7c0-1.2,0.7-2.1,1.7-2.8c1-0.6,2.2-1,3.6-1c1.4,0,2.6,0.3,3.6,1c1,0.6,1.7,1.6,1.7,2.8
	c0,0.6-0.2,1.2-0.6,1.7h1.6c0.4-0.6,0.6-1.2,0.6-1.9c0-1.2-0.7-2.4-1.9-3.3C48.7,66.1,46.9,65.5,44.9,65.5L44.9,65.5z M44.9,68.7
	c-1.1,0-2,0.3-2.6,0.7c-0.6,0.4-0.9,0.8-0.9,1.2s0.2,0.8,0.9,1.2c0.3,0.2,0.8,0.4,1.3,0.5h2.6c0.5-0.1,1-0.3,1.3-0.5
	c0.6-0.4,0.9-0.8,0.9-1.2s-0.2-0.8-0.9-1.2S46,68.7,44.9,68.7z"/>
</svg>
