<?xml version="1.0" encoding="utf-8"?>
<!-- Generator: Adobe Illustrator 27.4.0, SVG Export Plug-In . SVG Version: 6.00 Build 0)  -->
<svg version="1.1" id="Warstwa_1" xmlns="http://www.w3.org/2000/svg" xmlns:xlink="http://www.w3.org/1999/xlink" x="0px" y="0px"
	 viewBox="0 0 102 101" style="enable-background:new 0 0 102 101;" xml:space="preserve">
<style type="text/css">
	.st0{fill:#FAF7F4;}
	.st1{fill:none;stroke:#000000;stroke-width:1.2;stroke-linecap:round;stroke-linejoin:round;}
</style>
<circle class="st0" cx="51.3" cy="50.3" r="46.3"/>
<g vector-effect="non-scaling-stroke">
	<path class="st1" d="M58.2,40.7c-0.1-0.4-0.4-0.6-0.8-0.6h-4.3l-1.3-4c-0.1-0.4-0.6-0.7-1.1-0.5c-0.3,0.1-0.5,0.3-0.5,0.5l-1.3,4
		h-4.3c-0.4,0-0.7,0.2-0.8,0.6c-0.1,0.4,0,0.7,0.3,1l3.4,2.5l-1.3,4c-0.1,0.4,0,0.7,0.3,1c0.3,0.2,0.7,0.2,1,0l3.4-2.5l3.4,2.5
		c0.1,0.1,0.3,0.2,0.5,0.2s0.4-0.1,0.5-0.2c0.3-0.2,0.4-0.6,0.3-1l-1.3-4l3.4-2.5C58.2,41.4,58.3,41.1,58.2,40.7z"/>
	<path class="st1" d="M52.9,43.1c-0.3,0.2-0.4,0.6-0.3,1l0.7,2.1l-1.8-1.3c-0.3-0.2-0.7-0.2-1,0l-1.8,1.3l0.7-2.1
		c0.1-0.4,0-0.7-0.3-1l-1.8-1.3h2.2c0.4,0,0.7-0.2,0.8-0.6l0.7-2.1l0.7,2.1c0.1,0.4,0.4,0.6,0.8,0.6h2.2L52.9,43.1z"/>
	<path class="st1" d="M51,31.9c-6.3,0-11.3,5.1-11.3,11.3c0,5.9,4.5,10.8,10.4,11.3c0.3,0,0.6,0,1,0c0.3,0,0.6,0,0.9,0l0,0l0,0
		c6.2-0.5,10.8-6,10.3-12.2C61.8,36.4,56.9,31.9,51,31.9z"/>
	<path class="st1" d="M59.4,47.9L59.4,47.9c-1.6,2.8-4.4,4.6-7.6,4.9l0,0l0,0c-0.5,0.1-1.1,0-1.6,0c-5.3-0.5-9.2-5.1-8.8-10.4
		s5.1-9.2,10.4-8.8S61,38.7,60.6,44C60.5,45.4,60.1,46.7,59.4,47.9L59.4,47.9z"/>
	<path class="st1" d="M74,68.2l-3.2-5c-2.3-3.5-4.6-7.1-6.9-10.7c0.2-0.1,0.4-0.1,0.6-0.2c0.9-0.2,1.8-0.7,2.3-1.5
		c0.3-0.9,0.2-1.9-0.2-2.7c-0.2-0.4-0.3-0.9-0.3-1.4c0.2-0.4,0.5-0.8,0.9-1.1c0.8-0.6,1.3-1.4,1.4-2.4c-0.1-1-0.6-1.8-1.4-2.4
		c-0.4-0.3-0.7-0.7-0.9-1.1c0-0.5,0.1-1,0.3-1.4c0.4-0.8,0.5-1.8,0.2-2.7c-0.5-0.8-1.3-1.3-2.3-1.5c-0.5-0.1-0.9-0.3-1.3-0.6
		c-0.2-0.4-0.3-0.9-0.3-1.4c0-1-0.3-1.9-1-2.6c-0.8-0.5-1.8-0.6-2.7-0.4c-0.5,0.1-0.9,0.1-1.4,0c-0.4-0.3-0.7-0.7-0.9-1.1
		c-0.4-0.9-1.1-1.6-2-1.9c-0.9,0-1.9,0.3-2.6,0.9c-0.4,0.3-0.8,0.5-1.3,0.6c-0.5-0.1-0.9-0.3-1.3-0.6c-0.7-0.6-1.6-0.9-2.6-0.8
		c-0.9,0.3-1.6,1-2,1.9c-0.2,0.4-0.5,0.8-0.9,1.1c-0.5,0.1-1,0.1-1.4,0c-0.9-0.2-1.9-0.1-2.7,0.4c-0.7,0.7-1,1.6-1,2.6
		c0,0.5-0.1,0.9-0.3,1.4c-0.4,0.3-0.8,0.5-1.3,0.6c-0.9,0.2-1.8,0.7-2.3,1.5c-0.3,0.9-0.2,1.9,0.2,2.7c0.2,0.4,0.3,0.9,0.3,1.4
		c-0.2,0.4-0.5,0.8-0.9,1.1c-0.8,0.6-1.3,1.4-1.4,2.4c0.1,1,0.6,1.8,1.4,2.4c0.4,0.3,0.7,0.7,0.9,1.1c0,0.5-0.1,1-0.3,1.4
		C35,49,34.9,50,35.2,50.9c0.5,0.8,1.3,1.4,2.3,1.5c0.2,0.1,0.4,0.1,0.6,0.2c-2.3,3.6-4.6,7.1-6.9,10.7l-3.2,5
		c-0.2,0.3-0.2,0.7,0,0.9c0.2,0.3,0.5,0.4,0.9,0.4l5.8-1.1l1.4,5.8c0.1,0.3,0.4,0.6,0.7,0.6h0.1c0.3,0,0.6-0.1,0.7-0.4l9.2-14.3
		c0.1,0,0.1,0.1,0.2,0.1c0.1,0,0.3,0.1,0.4,0.1c0.8-0.1,1.5-0.4,2.2-0.9c0.4-0.3,0.8-0.5,1.3-0.6c0.5,0.1,0.9,0.3,1.3,0.6
		c0.7,0.6,1.7,0.9,2.6,0.8c0.1,0,0.1-0.1,0.2-0.1l9.2,14.3c0.2,0.2,0.4,0.4,0.7,0.4H65c0.3-0.1,0.6-0.3,0.7-0.6l1.4-5.8l5.8,1.1
		c0.3,0.1,0.7-0.1,0.9-0.4C74.2,68.9,74.2,68.5,74,68.2z"/>
	<path class="st1" d="M37.3,71.9l-1.1-4.6c-0.1-0.4-0.5-0.7-1-0.6l-4.7,0.9l2.1-3.3c2.1-3.3,4.3-6.6,6.4-10v0.1c0,1,0.3,1.9,1,2.6
		c0.8,0.5,1.8,0.6,2.7,0.4c0.5-0.1,0.9-0.1,1.4,0c0.4,0.3,0.7,0.7,0.9,1.1c0.2,0.2,0.3,0.5,0.5,0.7L37.3,71.9z"/>
	<path class="st1" d="M54.8,58.4c-0.1,0.1-0.2,0.1-0.3,0.2c-0.2,0.1-0.9-0.3-1.3-0.6c-0.6-0.5-1.4-0.8-2.2-0.9
		c-0.8,0.1-1.6,0.4-2.2,0.9c-0.4,0.3-1,0.7-1.3,0.6c-0.1,0-0.2-0.1-0.3-0.2c-0.3-0.3-0.5-0.6-0.7-1c-0.4-0.7-0.9-1.3-1.6-1.7
		c-0.4-0.2-0.8-0.3-1.2-0.2c-0.4,0-0.7,0-1.1,0.1c-0.5,0.1-1.2,0.1-1.5,0c-0.2-0.2-0.3-0.9-0.4-1.4c0-0.8-0.2-1.6-0.7-2.3
		c-0.1-0.1-0.1-0.2-0.2-0.2l-0.1-0.1l0,0l0,0c-0.5-0.4-1.1-0.7-1.7-0.8c-0.5-0.2-1.2-0.4-1.3-0.7c-0.1-0.2,0.1-0.9,0.3-1.4
		c0.3-0.7,0.5-1.5,0.4-2.3c-0.3-0.7-0.7-1.4-1.3-1.9c-0.4-0.4-0.9-0.9-0.9-1.2s0.5-0.8,0.9-1.2c0.6-0.5,1.1-1.2,1.3-1.9
		c0.1-0.8,0-1.6-0.4-2.3c-0.2-0.5-0.4-1.2-0.3-1.4c0.1-0.2,0.8-0.5,1.3-0.7c0.8-0.2,1.5-0.6,2-1.1c0.4-0.7,0.7-1.4,0.7-2.2
		c0.1-0.5,0.1-1.2,0.4-1.4c0.2-0.2,0.9-0.1,1.5,0c0.8,0.2,1.6,0.1,2.4-0.2c0.7-0.4,1.2-1,1.6-1.7c0.3-0.5,0.7-1.1,1-1.1
		c0.2-0.1,0.9,0.3,1.3,0.6c0.6,0.5,1.4,0.8,2.2,0.9c0.8-0.1,1.6-0.4,2.2-0.9c0.4-0.3,1-0.6,1.3-0.6c0.3,0.1,0.7,0.7,1,1.1
		c0.4,0.7,0.9,1.3,1.6,1.7c0.8,0.3,1.6,0.3,2.4,0.2c0.5-0.1,1.2-0.1,1.5,0c0.2,0.2,0.3,0.9,0.4,1.4c0,0.8,0.2,1.6,0.7,2.3
		c0.6,0.6,1.3,1,2,1.2c0.5,0.2,1.2,0.4,1.3,0.7c0.1,0.2-0.1,0.9-0.3,1.4c-0.3,0.7-0.5,1.5-0.4,2.3c0.3,0.7,0.7,1.4,1.3,1.9
		c0.4,0.4,0.9,0.9,0.9,1.2s-0.5,0.8-0.9,1.2c-0.6,0.5-1.1,1.2-1.3,1.9c-0.1,0.8,0,1.6,0.4,2.3c0.2,0.5,0.4,1.2,0.3,1.4
		s-0.8,0.5-1.3,0.7c-0.6,0.2-1.2,0.5-1.8,0.9c-0.1,0.1-0.2,0.2-0.3,0.3c-0.4,0.7-0.7,1.4-0.7,2.2c-0.1,0.5-0.1,1.2-0.4,1.4
		c-0.2,0.2-0.9,0.1-1.5,0c-0.8-0.2-1.6-0.1-2.4,0.2c-0.7,0.4-1.2,1-1.6,1.7C55.3,57.8,55,58.1,54.8,58.4z"/>
	<path class="st1" d="M66.8,66.6c-0.4-0.1-0.9,0.2-1,0.6l-1.1,4.6L56.5,59c0.2-0.2,0.3-0.5,0.5-0.7c0.2-0.4,0.5-0.8,0.9-1.1
		c0.5-0.1,1-0.1,1.4,0c0.9,0.2,1.9,0.1,2.7-0.4c0.7-0.7,1-1.6,1-2.6v-0.1c2.1,3.3,4.3,6.6,6.4,10l2.1,3.3L66.8,66.6z"/>
</g>
</svg>
